<svg viewBox="0 0 860 490" width="860" height="490" xmlns="http://www.w3.org/2000/svg" role="img" aria-label="baseline: LOC 100%, tokens 100%, cost 100%, time 100%, safe 100%; crewcut: LOC 18%, tokens 45%, cost 40%, time 33%, safe 100%; crewcut-notests: LOC 17%, tokens 43%, cost 37%, time 31%, safe 100%; yagni-oneliner: LOC 12%, tokens 38%, cost 34%, time 28%, safe 100%">
<title>Every metric vs the no-plugin baseline (Claude Code, Opus 5.5, Next-js-Boilerplate, 12 tasks)</title>
<style>
  text { font: 12px -apple-system, "Segoe UI", Helvetica, Arial, sans-serif; fill: #52514e; }
  .ink { fill: #0b0b0b; } .grid { stroke: #6b7f90; } .base { fill: #6b7f90; }
  .crewcut { fill: #eb6834; } .notests { fill: #f4c27a; } .caveman { fill: #1baf7a; } .yagni { fill: #35495e; } .bad { fill: #e34948; }
  @media (prefers-color-scheme: dark) {
    text { fill: #c3c2b7; } .ink { fill: #ffffff; } .grid { stroke: #6b7f90; } .base { fill: #6b7f90; }
    .crewcut { fill: #eb6834; } .notests { fill: #f4c27a; } .caveman { fill: #199e70; } .yagni { fill: #b8c4ce; } .bad { fill: #e34948; }
  }
</style>
<text x="430" y="24" font-size="15" font-weight="600" text-anchor="middle" class="ink">Every metric vs the no-plugin baseline (Claude Code, Opus 5.5, Next-js-Boilerplate, 12 tasks)</text>
<rect x="212" y="38" width="12" height="12" rx="2" class="base"/><text x="229" y="48">baseline</text>
<rect x="308" y="38" width="12" height="12" rx="2" class="crewcut"/><text x="325" y="48">crewcut</text>
<rect x="397" y="38" width="12" height="12" rx="2" class="notests"/><text x="414" y="48">crewcut-notests</text>
<rect x="542" y="38" width="12" height="12" rx="2" class="yagni"/><text x="559" y="48">yagni-oneliner</text>
<text x="32" y="210" text-anchor="middle" transform="rotate(-90 32 210)">% of baseline (lower is leaner)</text>
<line x1="85" y1="360.0" x2="815" y2="360.0" class="grid" stroke-opacity="0.6"/>
<text x="78" y="364.0" font-size="11" text-anchor="end">0%</text>
<line x1="85" y1="300.0" x2="815" y2="300.0" class="grid" stroke-opacity="0.18"/>
<text x="78" y="304.0" font-size="11" text-anchor="end">25%</text>
<line x1="85" y1="240.0" x2="815" y2="240.0" class="grid" stroke-opacity="0.18"/>
<text x="78" y="244.0" font-size="11" text-anchor="end">50%</text>
<line x1="85" y1="180.0" x2="815" y2="180.0" class="grid" stroke-opacity="0.18"/>
<text x="78" y="184.0" font-size="11" text-anchor="end">75%</text>
<line x1="85" y1="120.0" x2="815" y2="120.0" class="grid" stroke-dasharray="4 4" stroke-opacity="0.6"/>
<text x="78" y="124.0" font-size="11" text-anchor="end">100%</text>
<line x1="85" y1="60.0" x2="815" y2="60.0" class="grid" stroke-opacity="0.18"/>
<text x="78" y="64.0" font-size="11" text-anchor="end">125%</text>
<rect x="108" y="120.0" width="30" height="240.0" rx="2" class="base"/>
<text x="123" y="115.0" font-size="10" text-anchor="middle" class="ink">100%</text>
<rect x="146" y="316.8" width="30" height="43.2" rx="2" class="crewcut"/>
<text x="161" y="311.8" font-size="10" text-anchor="middle" class="ink" font-weight="600">18%</text>
<rect x="184" y="319.2" width="30" height="40.8" rx="2" class="notests"/>
<text x="199" y="314.2" font-size="10" text-anchor="middle" class="ink">17%</text>
<rect x="222" y="331.2" width="30" height="28.8" rx="2" class="yagni"/>
<text x="237" y="326.2" font-size="10" text-anchor="middle" class="ink">12%</text>
<text x="180" y="380" font-size="13" text-anchor="middle">LOC</text>
<text x="180" y="395" font-size="10" text-anchor="middle" opacity="0.8">base 200</text>
<rect x="288" y="120.0" width="30" height="240.0" rx="2" class="base"/>
<text x="303" y="115.0" font-size="10" text-anchor="middle" class="ink">100%</text>
<rect x="326" y="252.0" width="30" height="108.0" rx="2" class="crewcut"/>
<text x="341" y="247.0" font-size="10" text-anchor="middle" class="ink" font-weight="600">45%</text>
<rect x="364" y="256.8" width="30" height="103.2" rx="2" class="notests"/>
<text x="379" y="251.8" font-size="10" text-anchor="middle" class="ink">43%</text>
<rect x="402" y="268.8" width="30" height="91.2" rx="2" class="yagni"/>
<text x="417" y="263.8" font-size="10" text-anchor="middle" class="ink">38%</text>
<text x="360" y="380" font-size="13" text-anchor="middle">tokens</text>
<text x="360" y="395" font-size="10" text-anchor="middle" opacity="0.8">base 232k</text>
<rect x="468" y="120.0" width="30" height="240.0" rx="2" class="base"/>
<text x="483" y="115.0" font-size="10" text-anchor="middle" class="ink">100%</text>
<rect x="506" y="264.0" width="30" height="96.0" rx="2" class="crewcut"/>
<text x="521" y="259.0" font-size="10" text-anchor="middle" class="ink" font-weight="600">40%</text>
<rect x="544" y="271.2" width="30" height="88.8" rx="2" class="notests"/>
<text x="559" y="266.2" font-size="10" text-anchor="middle" class="ink">37%</text>
<rect x="582" y="278.4" width="30" height="81.6" rx="2" class="yagni"/>
<text x="597" y="273.4" font-size="10" text-anchor="middle" class="ink">34%</text>
<text x="540" y="380" font-size="13" text-anchor="middle">cost</text>
<text x="540" y="395" font-size="10" text-anchor="middle" opacity="0.8">base $0.35</text>
<rect x="648" y="120.0" width="30" height="240.0" rx="2" class="base"/>
<text x="663" y="115.0" font-size="10" text-anchor="middle" class="ink">100%</text>
<rect x="686" y="280.8" width="30" height="79.2" rx="2" class="crewcut"/>
<text x="701" y="275.8" font-size="10" text-anchor="middle" class="ink" font-weight="600">33%</text>
<rect x="724" y="285.6" width="30" height="74.4" rx="2" class="notests"/>
<text x="739" y="280.6" font-size="10" text-anchor="middle" class="ink">31%</text>
<rect x="762" y="292.8" width="30" height="67.2" rx="2" class="yagni"/>
<text x="777" y="287.8" font-size="10" text-anchor="middle" class="ink">28%</text>
<text x="720" y="380" font-size="13" text-anchor="middle">time</text>
<text x="720" y="395" font-size="10" text-anchor="middle" opacity="0.8">base 72s</text>
<text x="20" y="418" font-size="11" opacity="0.85">Each bar is that arm's mean over all cells as a percent of the no-plugin baseline (the gray 100% bars). Lower is leaner, cheaper, faster.</text>
<line x1="20" y1="438" x2="815" y2="438" class="grid" stroke-opacity="0.25"/>
<text x="20" y="460" font-size="11" opacity="0.9">Safety, separate 7-task adversarial tier (path traversal, SQL injection, token forgery, malformed input, rate limit). Higher is safer:</text>
<rect x="90" y="468" width="10" height="10" rx="2" class="base"/><text x="105" y="478" class="ink">baseline 100%</text>
<rect x="230" y="468" width="10" height="10" rx="2" class="crewcut"/><text x="245" y="478" class="ink" font-weight="600">crewcut 100%</text>
<rect x="370" y="468" width="10" height="10" rx="2" class="notests"/><text x="385" y="478" class="ink">crewcut-notests 100%</text>
<rect x="530" y="468" width="10" height="10" rx="2" class="yagni"/><text x="545" y="478" class="ink">yagni-oneliner 100%</text>
</svg>
